<svg width="236" height="52" viewBox="0 0 236 52" fill="none" xmlns="http://www.w3.org/2000/svg">
<path d="M28.9362 22.3011L35.7567 22.3373L36.6387 23.5692L38.3035 23.5849C38.3035 23.5849 36.6895 20.5411 36.3982 20.5408C35.7999 20.5402 34.6034 20.5356 34.6034 20.5356L29.2905 20.3811L26.373 17.2008L26.2645 14.4096L31.4027 14.3395L31.9984 14.7663L34.1287 16.0585L36.2792 15.9035L33.2296 13.6658L31.3594 12.3736L24.3298 12.3621L24.5151 15.5274L19.409 15.5569L10.8897 21.775L6.61719 21.7075L13.8459 15.1544L12.3344 12.8865C12.3344 12.8865 18.0671 12.8802 21.1303 12.8796C20.27 11.4793 19.0854 10.4952 18.2937 9.18211C18.4575 8.98185 18.6828 9.04726 18.8803 9.0455C19.8452 9.03687 20.8102 9.04121 21.7752 9.03859C24.9596 9.02999 28.144 9.03087 31.3282 9C31.7767 9.05248 32.2135 9.1812 32.6208 9.38086L36.4764 11.7023C36.4764 11.7023 36.9855 12.0525 36.995 12.4549C37.0161 13.3515 39.0037 13.727 39.5203 13.8617C41.1748 14.2981 48.4293 16.0305 48.4293 16.0305L52.4017 20.5251C52.5299 20.6607 52.6063 20.839 52.6172 21.0276C52.6033 23.1629 52.5934 25.2982 52.564 27.4333C52.5563 27.9995 52.4317 28.0878 51.8991 28.061C51.3017 28.0308 27.1124 26.0114 26.7036 25.912C26.5697 25.8795 24.5715 23.7351 24.3657 23.5003C24.3243 23.7422 24.2926 25.2183 24.2818 25.831C24.277 25.9584 24.3013 26.0853 24.3527 26.2014C24.404 26.3175 24.4811 26.4198 24.5777 26.5001C25.0901 26.9415 25.6364 27.3429 26.1351 27.7994C26.4755 28.111 34.8804 28.899 35.0565 28.9084C35.3543 29.3103 35.9077 30.0434 35.9077 30.0434L38.1695 30.4677L39.1862 29.2716L40.3365 31.159L42.0616 29.4731L43.0146 31.422L44.3554 29.5198L45.5292 31.4928L46.6633 29.8209L47.7989 31.7813L49.0298 29.9846C49.3577 30.8103 49.6477 31.5407 49.9413 32.28C49.2836 33.4153 47.9911 35.6632 47.9911 35.6632L47.4473 36L25.0636 32.984C25.0636 32.984 21.3738 30.144 21.3752 29.7378C21.3854 27.0599 21.3706 21.7383 21.3706 21.7383L14.0594 21.6034L19.6814 17.3171L24.5599 17.3441L28.9362 22.3011Z" fill="#07B6D4"/>
<path d="M13.6184 23H19.3069C19.3255 23.2622 19.3925 31.2111 19.3925 31.2111L32.3952 41.9477C32.5057 42.0644 32.5825 42.2098 32.6171 42.368C32.6213 43.8334 32.5136 46.9251 32.5136 46.9251L30.9842 47C30.9842 47 29.2668 45.5588 28.4078 44.8384C27.4621 44.0453 26.5247 43.2418 25.5756 42.4527C24.5392 41.591 23.495 40.739 22.4517 39.8858C21.1428 38.8152 19.8229 37.7582 18.524 36.6752C17.6913 35.9808 16.8936 35.2431 16.0694 34.5379C15.4298 33.9907 13.8672 32.7365 13.8672 32.7365C13.8672 32.7365 13.5973 23.2312 13.6184 23Z" fill="#07B6D4"/>
<path d="M13.7889 44L11.6172 45.9094C11.6172 45.9094 15.3696 49 15.7505 49C16.1314 49 17.6172 47.0284 17.6172 47.0284L13.7889 44Z" fill="#07B6D4"/>
<path d="M5.61719 40.7045L7.74622 39L11.6172 42.4091L9.35912 44C8.79118 43.5993 8.19127 43.139 7.57974 42.6125C6.88233 42.0121 6.22694 41.3749 5.61719 40.7045Z" fill="#07B6D4"/>
<path d="M46.9173 14.0476L49.6172 14.6637C43.5625 2.00568 29.4801 -2.8358 17.5281 1.62601C13.2959 3.20598 9.33077 6.22188 6.08384 10.0964C0.683086 16.5409 -2.03166 28.1086 4.21072 39C4.87 38.4705 5.49099 37.8949 6.06902 37.2774C5.5123 36.2996 -1.33698 25.6974 6.67783 12.9409C16.2168 -2.25622 38.3053 -1.50766 46.9173 14.0476Z" fill="#07B6D4"/>
<path d="M46.9554 37.3516C45.0877 40.3313 42.6273 42.8705 39.7364 44.8021C36.8454 46.7337 33.5893 48.0138 30.1825 48.5582C29.6758 48.1383 11.6863 32.9912 11.6943 32.2898C11.6751 28.8543 11.8175 25.4303 11.6132 22C9.52236 24.1755 7.49732 26.1106 5.61719 28.446C6.81087 28.548 7.92236 28.4046 9.04835 28.5174C9.04243 30.1653 9.07831 31.7524 9.04364 33.3915C9.03414 33.8511 15.2386 39.3815 18.0982 41.8572C20.3109 43.8351 22.6104 45.7048 24.8773 47.6157C26.0894 48.6422 29.0742 51.065 29.4423 50.9987C33.6443 50.4858 37.6709 48.9674 41.199 46.5654C45.8562 43.3892 48.42 39.1836 49.6172 37.0653L46.9554 37.3516Z" fill="#07B6D4"/>
<path d="M217.617 27V3H222.016V15.7169H224.836L231.063 8.92208H235.617V10.2935L228.708 17.961L235.617 25.6286V27H231.063L224.836 20.2052H222.016V27H217.617Z" fill="#07B6D4"/>
<path d="M201.173 27C200.355 27 199.601 26.8034 198.911 26.4103C198.222 25.9966 197.662 25.4586 197.231 24.7966C196.822 24.1345 196.617 23.4103 196.617 22.6241V13.3759C196.617 12.5897 196.822 11.8655 197.231 11.2035C197.662 10.5414 198.222 10.0138 198.911 9.62069C199.601 9.2069 200.355 9 201.173 9H215.585V13.4069H201.4C201.356 13.4069 201.313 13.4276 201.27 13.469C201.227 13.5103 201.206 13.5517 201.206 13.5931V22.4069C201.206 22.4483 201.227 22.4897 201.27 22.531C201.313 22.5724 201.356 22.5931 201.4 22.5931H215.617V27H201.173Z" fill="#07B6D4"/>
<path d="M180.173 27C179.355 27 178.59 26.8034 177.879 26.4103C177.19 25.9966 176.64 25.4586 176.231 24.7966C175.822 24.1345 175.617 23.4103 175.617 22.6241V15.7655H190.029V13.5931C190.029 13.5517 190.007 13.5103 189.964 13.469C189.921 13.4276 189.878 13.4069 189.835 13.4069H175.617V9H190.061C190.901 9 191.666 9.2069 192.355 9.62069C193.045 10.0138 193.594 10.5414 194.003 11.2035C194.413 11.8655 194.617 12.5897 194.617 13.3759V27H180.173ZM180.399 22.5931H190.029V19.7069H180.206V22.4069C180.206 22.4483 180.227 22.4897 180.27 22.531C180.313 22.5724 180.356 22.5931 180.399 22.5931Z" fill="#07B6D4"/>
<path d="M165.92 27C165.132 27 164.415 26.8071 163.769 26.4212C163.122 26.015 162.597 25.487 162.193 24.8371C161.809 24.1872 161.617 23.4764 161.617 22.7046V4H165.92V9.33113H172.617V13.657H165.92V22.4914C165.92 22.532 165.94 22.5726 165.981 22.6132C166.021 22.6539 166.062 22.6742 166.102 22.6742H172.617V27H165.92Z" fill="#07B6D4"/>
<path d="M140.185 27C139.355 27 138.588 26.8065 137.885 26.4194C137.182 26.012 136.629 25.4824 136.224 24.8306C135.82 24.1583 135.617 23.4148 135.617 22.6V20.7361H140.217V22.3861C140.217 22.4472 140.228 22.4981 140.249 22.5389C140.292 22.5593 140.334 22.5694 140.377 22.5694H153.762C153.804 22.5694 153.847 22.5593 153.889 22.5389C153.932 22.4981 153.953 22.4472 153.953 22.3861V18.3833C153.953 18.3426 153.932 18.312 153.889 18.2917C153.847 18.2509 153.804 18.2306 153.762 18.2306H140.185C139.355 18.2306 138.588 18.037 137.885 17.65C137.182 17.2426 136.629 16.7028 136.224 16.0306C135.82 15.3583 135.617 14.625 135.617 13.8306V9.4C135.617 8.58519 135.82 7.85185 136.224 7.2C136.629 6.52778 137.182 5.99815 137.885 5.61111C138.588 5.2037 139.355 5 140.185 5H154.017C154.848 5 155.604 5.2037 156.285 5.61111C156.988 5.99815 157.552 6.52778 157.978 7.2C158.404 7.85185 158.617 8.58519 158.617 9.4V11.2639H153.953V9.61389C153.953 9.55278 153.932 9.51204 153.889 9.49167C153.847 9.45092 153.804 9.43055 153.762 9.43055H140.377C140.334 9.43055 140.292 9.45092 140.249 9.49167C140.228 9.51204 140.217 9.55278 140.217 9.61389V13.6167C140.217 13.6574 140.228 13.6981 140.249 13.7389C140.292 13.7593 140.334 13.7694 140.377 13.7694H154.017C154.848 13.7694 155.604 13.9731 156.285 14.3806C156.988 14.7676 157.552 15.2972 157.978 15.9694C158.404 16.6417 158.617 17.375 158.617 18.1694V22.6C158.617 23.4148 158.404 24.1583 157.978 24.8306C157.552 25.4824 156.988 26.012 156.285 26.4194C155.604 26.8065 154.848 27 154.017 27H140.185Z" fill="#07B6D4"/>
<path d="M118.173 27C117.355 27 116.601 26.8034 115.911 26.4103C115.222 25.9966 114.662 25.4586 114.231 24.7966C113.822 24.1345 113.617 23.4103 113.617 22.6241V13.3759C113.617 12.5897 113.822 11.8655 114.231 11.2035C114.662 10.5414 115.222 10.0138 115.911 9.62069C116.601 9.2069 117.355 9 118.173 9H128.061C128.901 9 129.666 9.2069 130.355 9.62069C131.045 10.0138 131.594 10.5414 132.003 11.2035C132.413 11.8655 132.617 12.5897 132.617 13.3759V22.6241C132.617 23.4103 132.413 24.1345 132.003 24.7966C131.594 25.4586 131.045 25.9966 130.355 26.4103C129.666 26.8034 128.901 27 128.061 27H118.173ZM118.399 22.5931H127.835C127.878 22.5931 127.921 22.5724 127.964 22.531C128.007 22.4897 128.029 22.4483 128.029 22.4069V13.5931C128.029 13.5517 128.007 13.5103 127.964 13.469C127.921 13.4276 127.878 13.4069 127.835 13.4069H118.399C118.356 13.4069 118.313 13.4276 118.27 13.469C118.227 13.5103 118.206 13.5517 118.206 13.5931V22.4069C118.206 22.4483 118.227 22.4897 118.27 22.531C118.313 22.5724 118.356 22.5931 118.399 22.5931Z" fill="#07B6D4"/>
<path d="M92.6172 27V9H107.061C107.901 9 108.666 9.2069 109.355 9.62069C110.045 10.0138 110.594 10.5414 111.003 11.2035C111.413 11.8655 111.617 12.5897 111.617 13.3759V27H107.029V13.5931C107.029 13.5517 107.007 13.5103 106.964 13.469C106.943 13.4276 106.9 13.4069 106.835 13.4069H97.3995C97.3564 13.4069 97.3133 13.4276 97.2703 13.469C97.2272 13.5103 97.2056 13.5517 97.2056 13.5931V27H92.6172Z" fill="#07B6D4"/>
<path d="M84.6172 27V8.92208H89.6172V27H84.6172ZM84.6172 7.45714V3H89.6172V7.45714H84.6172Z" fill="#07B6D4"/>
<path d="M59.6172 27V5H77.9852C78.8371 5 79.6038 5.2037 80.2852 5.61111C80.988 5.99815 81.5524 6.52778 81.9783 7.2C82.4042 7.85185 82.6172 8.58519 82.6172 9.4V22.6C82.6172 23.4148 82.4042 24.1583 81.9783 24.8306C81.5524 25.4824 80.988 26.012 80.2852 26.4194C79.6038 26.8065 78.8371 27 77.9852 27H59.6172ZM64.3769 22.5694H77.7616C77.8255 22.5694 77.8681 22.5593 77.8894 22.5389C77.932 22.4981 77.9533 22.4472 77.9533 22.3861V9.61389C77.9533 9.55278 77.932 9.51204 77.8894 9.49167C77.8681 9.45092 77.8255 9.43055 77.7616 9.43055H64.3769C64.3343 9.43055 64.2917 9.45092 64.2491 9.49167C64.2065 9.51204 64.1852 9.55278 64.1852 9.61389V22.3861C64.1852 22.4472 64.2065 22.4981 64.2491 22.5389C64.2917 22.5593 64.3343 22.5694 64.3769 22.5694Z" fill="#07B6D4"/>
<path d="M88.1118 42.203C90.1635 42.2032 92.2099 42.2006 94.261 42.2042C94.5861 42.209 94.9038 42.1052 95.1649 41.9086C95.4238 41.7458 95.4528 41.4459 95.5569 41.1829C95.6529 40.8579 95.3865 40.1432 94.9528 40.0079C94.7633 39.9411 94.565 39.9036 94.3645 39.8967C92.9929 39.8919 91.6214 39.8774 90.2499 39.8888C89.7778 39.9122 89.3085 39.804 88.8929 39.576C88.4773 39.348 88.1313 39.0089 87.8928 38.5956C87.689 38.218 87.5887 37.7921 87.6021 37.362C87.5224 36.213 87.888 35.0563 88.9469 34.5065C89.3424 34.2747 89.7894 34.1481 90.2462 34.1386C92.3752 34.1456 97.1631 34.0129 97.145 34.1509C97.0588 34.8109 96.9615 35.2313 96.8643 35.8484C94.9872 35.8502 93.127 35.8534 91.2518 35.8599C90.9186 35.8612 90.5843 35.8375 90.2622 35.9836C89.4246 36.3562 89.3523 37.6778 90.2784 38.0521C90.4767 38.127 90.6873 38.1622 90.8988 38.1558C92.2704 38.1552 93.6419 38.1551 95.0135 38.1558C95.96 38.1044 96.7875 38.4922 97.2853 39.3169C97.4583 39.5915 97.5689 39.9016 97.609 40.2248C97.6516 40.5409 97.7388 40.8505 97.7137 41.1743C97.6814 42.12 97.3286 43.0476 96.4411 43.4885C96.0161 43.7004 95.5462 43.8033 95.0727 43.788C92.5142 43.7694 89.9698 43.8133 87.4102 43.7689C87.601 43.2168 87.9081 42.7601 88.1118 42.203Z" fill="#07B6D4" fill-opacity="0.7"/>
<path d="M132.594 35.7901C132.57 36.5847 132.583 37.3397 132.583 38.131H137.971C137.77 38.677 137.578 39.1378 137.338 39.6516C137.307 39.7179 137.257 39.773 137.194 39.8096C137.132 39.8462 137.06 39.8626 136.989 39.8566C135.533 39.8524 134.073 39.8594 132.618 39.8562C132.557 40.2606 132.572 41.9418 132.638 42.1998H139.957C139.953 42.5255 139.786 42.7566 139.673 43.0081C139.557 43.2671 139.458 43.5341 139.354 43.7896H130.457V34.0879H139.626C139.449 34.5942 139.247 35.0909 139.021 35.576C139.003 35.6418 138.963 35.6991 138.908 35.7383C138.853 35.7775 138.787 35.7961 138.72 35.7911C136.676 35.7877 134.641 35.7914 132.594 35.7901Z" fill="#07B6D4" fill-opacity="0.7"/>
<path d="M101.238 40.6348V43.7706C100.522 43.8043 99.8371 43.7821 99.1289 43.7854V34.1171C101.302 34.0524 103.48 34.1185 105.655 34.0973C106.015 34.1214 106.369 34.2055 106.703 34.3464C106.949 34.4241 107.18 34.5471 107.384 34.7094C107.802 35.0501 108.115 35.508 108.284 36.0275C108.474 36.588 108.394 37.1559 108.425 37.7211C108.429 37.8772 108.424 38.0335 108.409 38.189C108.333 39.653 107.125 40.5299 105.764 40.5385C104.254 40.6844 102.751 40.5623 101.238 40.6348ZM101.25 38.7539C102.546 38.7927 103.838 38.75 105.135 38.7717C105.347 38.787 105.559 38.7288 105.735 38.6063C105.999 38.3998 106.249 38.1796 106.29 37.7904C106.325 37.428 106.32 37.0628 106.276 36.7015C106.156 36.0014 105.423 35.7972 104.82 35.8033C103.629 35.8356 102.44 35.7725 101.25 35.8305V38.7539Z" fill="#07B6D4" fill-opacity="0.7"/>
<path d="M119.543 43.7896H117.239C116.968 43.2626 116.733 42.7181 116.535 42.1597C116.415 41.8358 116.338 41.7811 115.989 41.7808C114.468 41.7764 112.947 41.7872 111.425 41.7747C111.345 41.764 111.264 41.7821 111.196 41.8257C111.128 41.8694 111.077 41.9357 111.053 42.0131C110.837 42.4754 110.628 42.9389 110.449 43.4171C110.389 43.5447 110.318 43.6672 110.238 43.7835H107.82C108.04 43.2042 108.314 42.7148 108.576 42.1687C108.761 41.7424 108.947 41.3181 109.174 40.9103C109.608 39.9611 109.986 38.9758 110.468 38.0466C110.605 37.6887 110.762 37.3388 110.939 36.9985C111.219 36.5252 111.369 35.9945 111.648 35.5214C111.789 35.2505 111.913 34.9709 112.02 34.6843C112.135 34.4651 112.149 34.0921 112.467 34.0879C113.311 34.0921 114.155 34.0928 114.999 34.0901C115.061 34.0881 115.122 34.1061 115.174 34.1415C115.225 34.1769 115.264 34.2278 115.285 34.2868C115.862 35.6187 116.479 36.9337 117.077 38.2564C117.657 39.5192 118.21 40.7941 118.803 42.0508C119.039 42.5458 119.288 43.0352 119.5 43.5412C119.523 43.6223 119.537 43.7056 119.543 43.7896ZM111.919 39.9836C112.232 40.0586 115.215 40.0528 115.468 39.9802C115.372 39.5697 115.136 39.2034 114.982 38.8116C114.845 38.503 114.713 38.1927 114.581 37.8821C114.399 37.4508 114.229 37.0134 114.032 36.5889C113.929 36.3682 113.882 36.1038 113.632 35.9376C113.058 37.2925 112.494 38.6253 111.919 39.9836Z" fill="#07B6D4" fill-opacity="0.7"/>
<path d="M128.615 34.108V35.7859C126.872 35.8327 125.124 35.7955 123.38 35.8025C123.176 35.7969 122.973 35.8337 122.784 35.9108C122.594 35.988 122.422 36.1037 122.277 36.2512C122.176 36.3452 122.096 36.4597 122.04 36.5873C121.985 36.715 121.956 36.853 121.956 36.9928C121.95 38.3136 121.932 39.6351 121.963 40.9552C121.94 41.8733 122.837 42.2257 123.637 42.1897C125.306 42.1905 126.956 42.1903 128.628 42.1903C128.635 42.7333 128.638 43.1968 128.636 43.7431C126.497 43.841 124.344 43.7496 122.199 43.7753C121.364 43.773 120.755 43.3132 120.315 42.6472C120.072 42.292 119.943 41.8677 119.945 41.4334C119.968 39.8216 119.929 38.2086 119.974 36.5978C120 35.9912 120.254 35.4185 120.681 34.9996C120.965 34.6796 121.323 34.4377 121.721 34.2961C122.012 34.2291 122.278 34.0859 122.594 34.0879C124.603 34.1139 126.606 34.0666 128.615 34.108Z" fill="#07B6D4" fill-opacity="0.7"/>
<path d="M184.477 42.0584C186.41 42.0585 188.338 42.0561 190.27 42.0595C190.713 42.0559 191.262 41.8494 191.388 41.3839C191.411 41.2786 191.461 41.18 191.491 41.0759C191.582 40.763 191.331 40.0746 190.922 39.9443C190.744 39.88 190.557 39.8439 190.368 39.8371C189.076 39.8324 187.784 39.8186 186.492 39.8296C186.137 39.8419 185.783 39.7785 185.455 39.6433C185.011 39.4599 184.633 39.1465 184.373 38.7452C184.113 38.3437 183.982 37.873 183.997 37.3959C183.921 36.3034 184.264 35.1739 185.264 34.6457C185.634 34.4233 186.056 34.3011 186.488 34.2914C188.554 34.3098 190.616 34.2691 192.682 34.3033C192.76 34.8323 192.703 35.3637 192.723 35.9381C190.954 35.9399 189.202 35.9429 187.436 35.9492C187.122 35.9505 186.807 35.9276 186.503 36.0684C185.711 36.4332 185.647 37.697 186.519 38.0607C186.705 38.1325 186.903 38.1666 187.103 38.1605C188.395 38.1598 189.687 38.1598 190.979 38.1604C191.407 38.1228 191.836 38.2084 192.215 38.4067C192.595 38.6051 192.909 38.9079 193.119 39.2788C193.283 39.5451 193.387 39.8433 193.424 40.1532C193.674 41.2933 193.461 42.708 192.324 43.2965C191.926 43.5 191.483 43.5994 191.035 43.5849C188.625 43.5671 186.228 43.6093 183.816 43.5667C183.996 43.0348 184.285 42.5949 184.477 42.0584Z" fill="#07B6D4" fill-opacity="0.7"/>
<path d="M226.72 42.0584C228.652 42.0585 230.58 42.0561 232.513 42.0595C232.955 42.0559 233.505 41.8494 233.63 41.3838C233.653 41.2786 233.703 41.18 233.733 41.0759C233.824 40.763 233.573 40.0746 233.164 39.9443C232.986 39.88 232.799 39.8439 232.61 39.8371C231.318 39.8324 230.026 39.8186 228.734 39.8296C228.379 39.8419 228.025 39.7785 227.697 39.6433C227.253 39.4599 226.876 39.1465 226.615 38.7452C226.355 38.3437 226.224 37.873 226.24 37.3959C226.163 36.3034 226.506 35.1739 227.506 34.6457C227.876 34.4233 228.298 34.3011 228.73 34.2914C230.796 34.3098 232.858 34.2691 234.924 34.3033C235.003 34.8323 234.945 35.3637 234.965 35.9381C233.197 35.9399 231.444 35.9429 229.678 35.9492C229.364 35.9505 229.049 35.9276 228.745 36.0684C227.953 36.4332 227.889 37.697 228.761 38.0607C228.947 38.1325 229.145 38.1666 229.345 38.1605C230.637 38.1598 231.929 38.1598 233.221 38.1604C233.649 38.1228 234.078 38.2084 234.458 38.4066C234.837 38.6051 235.151 38.9079 235.362 39.2788C235.525 39.5451 235.629 39.8433 235.667 40.1532C235.917 41.2933 235.704 42.708 234.566 43.2965C234.168 43.5 233.725 43.5994 233.277 43.585C230.867 43.5671 228.47 43.6093 226.059 43.5667C226.238 43.0348 226.528 42.5949 226.72 42.0584Z" fill="#07B6D4" fill-opacity="0.7"/>
<path d="M148.109 34.2913C150.269 34.2916 152.426 34.2844 154.585 34.2943C155.024 34.2962 155.442 34.4403 155.865 34.5569C156.623 34.7896 157.124 35.4272 157.362 36.154C157.629 36.8295 157.518 37.5316 157.528 38.2231C157.544 39.2114 157.53 40.2 157.526 41.1885C157.525 41.5791 157.368 41.9289 157.24 42.2882C157.012 42.9226 156.5 43.2708 155.952 43.562C155.513 43.7349 155.041 43.81 154.569 43.7818C152.391 43.7685 150.222 43.8147 148.043 43.7649C148.043 40.6673 148.043 37.6039 148.045 34.5405C148.057 34.4553 148.079 34.3718 148.109 34.2913ZM150.119 35.9751C150.036 37.8772 150.107 39.7785 150.083 41.6827C150.083 42.0497 150.136 42.0993 150.512 42.0998C151.629 42.1016 152.746 42.1008 153.863 42.0978C154.509 42.1417 155.343 41.735 155.334 41.0194C155.367 39.7332 155.36 38.4455 155.337 37.159C155.318 36.8346 155.177 36.5295 154.943 36.3056C154.709 36.0817 154.398 35.9559 154.075 35.9538C152.752 35.9694 151.439 35.895 150.119 35.9751Z" fill="#07B6D4" fill-opacity="0.7"/>
<path d="M222.857 40.331C223.501 41.4801 224.212 42.5715 224.897 43.7089C224.841 43.7405 224.779 43.763 224.716 43.7759C224.068 43.7817 223.419 43.7776 222.771 43.7862C222.695 43.7896 222.619 43.7692 222.554 43.7272C222.489 43.6853 222.439 43.6241 222.409 43.5521C222.13 43.0013 221.856 42.4471 221.575 41.8971C221.36 41.4765 221.141 41.0575 220.914 40.6433C220.873 40.5586 220.809 40.4882 220.728 40.4408C220.648 40.3935 220.555 40.3715 220.462 40.3776C219.672 40.3904 218.88 40.3828 218.09 40.3864C217.79 40.3878 217.775 40.4033 217.774 40.711C217.77 41.7025 217.771 42.7024 217.77 43.6927C217.509 43.7961 216.276 43.8217 215.808 43.7409C215.678 40.6886 215.814 37.5784 215.777 34.5072C215.788 34.4382 215.807 34.3709 215.834 34.307C218.021 34.2692 220.208 34.3051 222.395 34.2919C222.814 34.2916 223.192 34.4498 223.586 34.5613C224.295 34.7868 224.757 35.3732 225.053 36.0268C225.321 36.602 225.249 37.2029 225.213 37.7884C225.105 39.3333 224.176 39.8052 222.857 40.331ZM217.788 38.5647C217.822 38.5779 217.858 38.5879 217.894 38.5946C219.266 38.5959 220.638 38.6112 222.009 38.5839C222.301 38.5782 222.583 38.4731 222.808 38.2857C222.989 38.1342 223.035 37.9305 223.116 37.7317C223.288 37.3118 223.163 36.9412 222.969 36.5731C222.739 36.1365 222.332 35.974 221.893 35.9643C220.598 35.9359 219.303 35.9467 218.007 35.9448C217.933 35.9508 217.86 35.9631 217.788 35.9816V38.5647Z" fill="#07B6D4" fill-opacity="0.7"/>
<path d="M178.304 43.7815C177.555 43.7815 176.806 43.7971 176.058 43.7773C175.666 43.7707 175.281 43.6723 174.933 43.4901C174.586 43.3081 174.287 43.0473 174.059 42.7287C173.315 41.7023 173.563 40.3165 173.519 39.1329C173.498 38.6229 173.538 38.1099 173.509 37.6005C173.494 36.5388 173.703 35.3383 174.71 34.763C174.99 34.6229 175.281 34.5075 175.58 34.4181C176.05 34.2578 176.523 34.2965 176.998 34.2941C178.082 34.2886 179.166 34.2859 180.25 34.2951C180.684 34.2986 181.093 34.442 181.509 34.5563C182.691 34.9115 183.225 36.1745 183.209 37.3232C183.202 38.534 183.21 39.7448 183.201 40.9557C183.193 41.2128 183.078 41.4685 183.058 41.7276C183.036 42.2167 182.746 42.5735 182.462 42.9317C182.244 43.2057 181.91 43.3345 181.648 43.5537C180.609 43.924 179.402 43.7356 178.304 43.7739L178.304 43.7815ZM181.031 39.0502L181.037 39.05C181.037 38.4399 181.033 37.8294 181.039 37.2192C181.045 36.592 180.492 35.9859 179.874 35.9697C178.871 35.9319 177.865 35.9484 176.861 35.9608C176.094 35.9946 175.687 36.7757 175.681 37.4713C175.685 38.5255 175.693 39.58 175.675 40.634C175.669 40.9596 175.862 41.2204 175.89 41.5285C176.002 41.7021 176.156 41.8449 176.338 41.9441C176.52 42.0434 176.724 42.0959 176.931 42.0971C177.79 42.1091 178.65 42.1053 179.509 42.1031C179.764 42.1108 180.017 42.0643 180.252 41.9663C180.717 41.7626 181.006 41.4475 181.025 40.9471C181.05 40.3156 181.031 39.6825 181.031 39.0502Z" fill="#07B6D4" fill-opacity="0.7"/>
<path d="M165.131 37.5285V43.7639C164.485 43.7938 163.88 43.7829 163.235 43.7686C163.232 40.8755 163.228 37.9965 163.223 35.1048C163.209 34.8215 163.156 34.5664 163.275 34.2909C163.888 34.2909 164.477 34.2856 165.065 34.2932C165.334 34.2967 165.441 34.5332 165.569 34.7091C166.687 36.3071 167.819 37.8962 168.925 39.5026C169.282 40.0202 169.636 40.5404 169.992 41.0583C170.002 41.0729 170.032 41.074 170.064 41.086C170.184 40.9876 170.145 40.8473 170.145 40.7224C170.149 38.7118 170.143 36.7013 170.147 34.6907C170.152 34.3795 170.238 34.292 170.539 34.2906C171.094 34.2879 171.649 34.2897 172.236 34.2897C172.334 37.4402 172.286 40.6058 172.256 43.7596C171.495 43.8206 170.736 43.7639 169.973 43.7803C169.892 43.7868 169.81 43.7693 169.739 43.7301C169.667 43.6908 169.608 43.6314 169.57 43.5593C168.39 41.9459 167.27 40.283 166.106 38.6507C165.924 38.3932 165.717 38.1534 165.53 37.8988C165.427 37.7583 165.406 37.5442 165.131 37.5285Z" fill="#07B6D4" fill-opacity="0.7"/>
<path d="M212.342 34.3063H214.288C214.393 36.5563 214.298 38.8177 214.323 41.0725C214.313 41.3307 214.201 41.5877 214.166 41.845C214.106 42.4675 213.728 42.9031 213.285 43.2645C212.837 43.6135 212.284 43.7959 211.719 43.7813C210.433 43.787 209.146 43.7985 207.86 43.7712C207.484 43.7625 207.116 43.6615 206.787 43.4769C206.457 43.2923 206.177 43.0298 205.971 42.7116C205.388 41.8704 205.452 40.7224 205.457 39.7413C205.445 38.0856 205.451 36.4298 205.45 34.7741C205.431 34.5526 205.458 34.2779 205.743 34.2924C206.325 34.2865 206.906 34.2902 207.528 34.2902C207.623 36.3458 207.55 38.4019 207.556 40.4598C207.57 40.8226 207.642 41.1804 207.771 41.5192C207.839 41.6782 207.959 41.8082 208.112 41.8864C208.307 42.0024 208.525 42.0724 208.751 42.0914C209.564 42.1131 210.377 42.1073 211.19 42.0916C211.651 42.0829 212.164 41.5986 212.191 41.1389C212.297 39.0086 212.231 36.8735 212.255 34.7413C212.269 34.5937 212.299 34.448 212.342 34.3063Z" fill="#07B6D4" fill-opacity="0.7"/>
<path d="M161.093 34.2901C161.183 34.5722 161.215 43.2487 161.132 43.7745C160.434 43.7838 159.729 43.805 158.994 43.7657C158.921 40.7033 158.981 37.6431 158.969 34.5803C158.974 34.5027 159.01 34.4297 159.067 34.3763C159.125 34.3228 159.201 34.2929 159.281 34.2924C159.88 34.2866 160.48 34.2901 161.093 34.2901Z" fill="#07B6D4" fill-opacity="0.7"/>
<path d="M205.041 43.7886H202.816C202.555 43.2727 202.328 42.7395 202.137 42.1928C202.021 41.8755 201.946 41.822 201.61 41.8217C200.141 41.8174 198.672 41.828 197.203 41.8158C197.126 41.8054 197.048 41.823 196.982 41.8657C196.916 41.9084 196.867 41.9734 196.844 42.0491C196.635 42.5019 196.433 42.9556 196.26 43.4239C196.202 43.5489 196.134 43.6688 196.057 43.7827H193.723C193.935 43.2154 194.2 42.7362 194.452 42.2015C194.631 41.784 194.811 41.3687 195.029 40.9694C195.448 40.0399 195.813 39.0751 196.279 38.1653C196.411 37.8148 196.563 37.4721 196.734 37.1389C197.004 36.6755 197.149 36.156 197.418 35.6927C197.554 35.4275 197.674 35.1537 197.777 34.873C197.888 34.6585 197.902 34.2932 198.209 34.2891C199.024 34.2931 199.839 34.2939 200.653 34.2912C200.714 34.2892 200.773 34.3068 200.823 34.3414C200.872 34.3762 200.91 34.426 200.929 34.4839C201.487 35.788 202.082 37.0755 202.66 38.3707C203.22 39.6073 203.754 40.8556 204.327 42.0862C204.555 42.5708 204.795 43.05 205 43.5455C205.022 43.6249 205.035 43.7063 205.041 43.7886ZM197.68 40.062C197.982 40.1354 200.863 40.1297 201.107 40.0585C201.014 39.6566 200.786 39.298 200.637 38.9144C200.506 38.6123 200.378 38.3084 200.251 38.0043C200.074 37.5819 199.91 37.1535 199.72 36.7379C199.621 36.5218 199.575 36.263 199.334 36.1002C198.78 37.4269 198.235 38.7319 197.68 40.062Z" fill="#07B6D4" fill-opacity="0.7"/>
<path d="M74.5088 43.7896V40.1649L70.0273 34.0879H72.3286L75.4778 38.0494L78.6135 34.0879H80.9417L76.4602 40.1784V43.7896H74.5088Z" fill="#07B6D4" fill-opacity="0.7"/>
<path d="M60.1211 43.7896V34.0879H67.5051C67.8555 34.0879 68.1744 34.1777 68.4618 34.3574C68.7583 34.5281 68.9963 34.7616 69.176 35.0581C69.3556 35.3455 69.4455 35.6689 69.4455 36.0282V37.8877C69.4455 38.0045 69.4365 38.1168 69.4185 38.2246C69.4005 38.3234 69.3736 38.4222 69.3377 38.521C69.4814 38.7097 69.5982 38.9163 69.688 39.1408C69.7778 39.3564 69.8227 39.5765 69.8227 39.8011V41.8492C69.8227 42.2085 69.7329 42.5364 69.5533 42.8329C69.3736 43.1203 69.1355 43.3539 68.8391 43.5335C68.5517 43.7042 68.2283 43.7896 67.8689 43.7896H60.1211ZM62.1423 41.8358H67.7746C67.8016 41.8358 67.8195 41.8313 67.8285 41.8223C67.8465 41.8043 67.8555 41.7819 67.8555 41.7549V39.9089C67.8555 39.8909 67.8465 39.873 67.8285 39.855C67.8195 39.837 67.8016 39.828 67.7746 39.828H62.1423C62.1153 39.828 62.0929 39.837 62.0749 39.855C62.0659 39.873 62.0614 39.8909 62.0614 39.9089V41.7549C62.0614 41.7819 62.0659 41.8043 62.0749 41.8223C62.0929 41.8313 62.1153 41.8358 62.1423 41.8358ZM62.1423 37.8742H67.3973C67.4153 37.8742 67.4333 37.8697 67.4512 37.8608C67.4692 37.8428 67.4782 37.8248 67.4782 37.8069V36.1225C67.4782 36.0956 67.4692 36.0776 67.4512 36.0686C67.4333 36.0507 67.4153 36.0417 67.3973 36.0417H62.1423C62.1153 36.0417 62.0929 36.0507 62.0749 36.0686C62.0659 36.0776 62.0614 36.0956 62.0614 36.1225V37.8069C62.0614 37.8248 62.0659 37.8428 62.0749 37.8608C62.0929 37.8697 62.1153 37.8742 62.1423 37.8742Z" fill="#07B6D4" fill-opacity="0.7"/>
</svg>
